#!OML:ASF F:\VICON\USERDATA\INSTALL\rory3\rory3.ASF
:FULLY-SPECIFIED
:DEGREES
56
root 0.9992116550785414 17.846201713994386 45.06139303617954 -3.4733555040700606 -1.924086608670013 2.980399892122829
lfemur 11.530222422332212 -4.742557930141572 -27.40153442078994
ltibia 22.58547637224744
lfoot -1.293827347373063 -6.513671509999025
ltoes -3.3577265049826965
rfemur -25.776713448035117 1.0326856632724164 19.40222024758258
rtibia 44.05495441416855
rfoot -8.006039852548904 -0.6200094185578884
rtoes 2.0985476863682058
lowerback -1.0 -1.7598350844072836 -3.6177736982377637
upperback 0.11993010889410692 -2.45235316566524 1.2401949450184948
thorax -4.900218015369506 -1.1912947360440083 3.1223334729078074
lowerneck -16.472563633181405 -2.6828411888398533 -2.2770137334133382
upperneck 22.13611739448648 -3.2554478017326955 0.7122108940849979
head 9.792728375472922 -1.6311376850430042 0.2736142883999652
lclavicle 2.766847570119886e-16 -8.876344448257416e-16
lhumerus -23.994113363991744 -0.6650319365052795 79.37826943427436
lradius 29.15458995899538
lwrist 5.453996911445629
lhand -28.161851778248767 20.421489056887523
lfingers nan
lthumb -1.3912641179377492 50.76402073030961
rclavicle 3.881269648994792e-16 -7.924459748934775e-16
rhumerus -34.6558148858279 -21.32450396628614 -80.03496377751873
rradius 30.977387805393217
rwrist -0.9292690959725589
rhand -17.460083118421796 -1.0
rfingers nan
rthumb 8.854439703094949 -7.396852330804994
57
root 1.0916750260632289 17.874712813927644 46.742086580055386 -3.0775634998925123 -2.5474139361074664 2.000480168762099
lfemur 12.013242687564414 -4.175943029509664 -25.957470595329973
ltibia 25.251039584117
lfoot -0.8691098762179461 -6.5193971016097
ltoes -2.6682288959427134
rfemur -25.459283783380492 1.770310698878198 21.020580824084583
rtibia 38.581078846949964
rfoot -8.948860098533144 -0.7928692259119954
rtoes 1.2782336688905103
lowerback -1.0 -1.9674097832181063 -2.9745860617885804
upperback 0.015009533682533896 -2.6328776180463316 1.5338743943441124
thorax -4.8610996662507695 -1.2971108791380341 3.2534648379152817
lowerneck -16.435677695228605 -2.667240619405452 -2.3408953027354658
upperneck 22.28669036599938 -3.2080657518035487 0.5259583386119898
head 9.830864661124666 -1.6189668997693096 0.2057524098888771
lclavicle 2.719999647798734e-16 -8.905362730966308e-16
lhumerus -23.998140301024083 -0.4647032341162962 79.40360245498233
lradius 29.039087298727832
lwrist 5.81066275492956
lhand -28.19933972117146 20.245956047679453
lfingers nan
lthumb -1.4816739631205895 50.495366198727176
rclavicle 3.8920813098692333e-16 -7.903938219150726e-16
rhumerus -35.17426112662866 -22.226133333108294 -78.82996379688413
rradius 31.530067520564604
rwrist 0.37458383812846474
rhand -17.455656650711916 -1.0
rfingers nan
rthumb 8.83456862154857 -7.456727907897011
58
root 1.1812300140340313 17.903402342004934 47.657614275276615 -2.7961748529669266 -3.056621744315266 1.066656330715394
lfemur 11.825531199987957 -3.5981121447686233 -24.388954468164776
ltibia 28.650556240376105
lfoot -1.166429049661736 -6.024486448649175
ltoes -2.4798443609200502
rfemur -24.736557662981028 2.407198642794345 22.3658307570427
rtibia 33.796292295055096
rfoot -9.940238837509721 -2.1244882195717105
rtoes 0.969681714376855
lowerback -1.0 -2.078245877144446 -2.2882817650097733
upperback -0.07611040180394152 -2.7200183289273565 1.7809727299383324
thorax -4.8307895026487015 -1.355259396941796 3.3017770100968784
lowerneck -16.41582954660732 -2.665580012101081 -2.3402555045687543
upperneck 22.334396683525746 -3.1933119422036573 0.37753817641294596
head 9.842862812493678 -1.6189813920000367 0.1413392917384706
lclavicle 2.6939712298079734e-16 -8.921450917743529e-16
lhumerus -24.235141770205303 -0.39726766908891786 79.50572897842122
lradius 28.640098064700098
lwrist 6.100678199874992
lhand -28.18530356857708 20.207628598889613
lfingers nan
lthumb -1.4899113205313625 50.482339468604124
rclavicle 3.8923765269468527e-16 -7.894433638056979e-16
rhumerus -35.449278417848035 -23.317379915210267 -77.61167695577593
rradius 31.881414142479315
rwrist 1.8931330601857836
rhand -17.46646834607918 -1.0
rfingers nan
rthumb 8.843066878283572 -7.461965737781527
59
root 1.2514487679143178 17.92535928597544 47.92368964450544 -2.5930395314668746 -3.3362473196226334 -0.22789171865921531
lfemur 10.741271146743891 -3.057303358602167 -22.369846126640525
ltibia 32.92865423469543
lfoot -1.7101629697566585 -5.330685308112804
ltoes -2.506877859029499
rfemur -23.54438669395516 2.9379760751514428 23.927593506880882
rtibia 30.107855674978335
rfoot -10.979017008651361 -4.371752664757107
rtoes 1.3815591499425037
lowerback -1.0 -2.0734231381427346 -1.1961964868340318
upperback -0.14526714460857848 -2.6023463722523923 2.013492352163419
thorax -4.87126963246332 -1.3240479797303268 3.2358707712585772
lowerneck -16.425282058513304 -2.6741064808582666 -2.296021532758811
upperneck 22.285630393696437 -3.2037118678467538 0.2713362026294769
head 9.822179060834443 -1.6290530398901375 0.08678786813115483
lclavicle 2.6871825144142506e-16 -8.927290040216145e-16
lhumerus -24.662014784363127 -0.5139777720064869 79.66243516722093
lradius 27.969374555445082
lwrist 6.204206986142242
lhand -28.227458332569313 19.96831881662746
lfingers nan
lthumb -1.5269417978298274 50.26542793707822
rclavicle 3.8967947460753026e-16 -7.889775314126254e-16
rhumerus -35.469418887327684 -24.45502594578714 -76.47063120201153
rradius 32.03558548486014
rwrist 2.863459011871295
rhand -17.469932476029438 -1.0
rfingers nan
rthumb 8.812176636642016 -7.584637276733613
60
root 1.29885078656896 17.935985106109175 48.1890061957499 -2.5828898541793777 -3.3971251529317983 -1.049809801811582
lfemur 8.82206692523922 -2.5874907542814363 -20.764277951173675
ltibia 37.948512669859
lfoot -2.8152293847373335 -4.139671285225961
ltoes -2.1185176776171937
rfemur -21.47146808652755 3.1890424953046397 25.19413929807277
rtibia 27.611135676555172
rfoot -12.492309158843074 -6.654641167450478
rtoes 2.13490929797677
lowerback -1.0 -1.9885503110850622 -0.3677838320135509
upperback -0.1669514554026167 -2.414577249293169 2.125213364036111
thorax -4.9422823133876665 -1.2610984624604316 3.091127835788894
lowerneck -16.454517165113316 -2.684758069353469 -2.2175571495100894
upperneck 22.181846298662357 -3.220078252054993 0.19931155130620548
head 9.779723761424592 -1.6408589885227671 0.04795100821410918
lclavicle 2.703995178401415e-16 -8.920584020632145e-16
lhumerus -25.198719453137507 -0.6992910331357836 79.859299251308
lradius 27.034085638208392
lwrist 6.282182798123536
lhand -28.23314857827727 19.86062306630383
lfingers nan
lthumb -1.4921970204542516 50.18319530746259
rclavicle 3.923210899784554e-16 -7.879035761168902e-16
rhumerus -35.21427326240967 -25.462013986809872 -75.49693225941789
rradius 32.01810761036214
rwrist 3.4002754605993064
rhand -17.455983239258742 -1.0
rfingers nan
rthumb 8.861876358968976 -7.523545992206443
61
root 1.336640627811768 17.93570895088709 48.20752946657518 -2.8381891683425895 -3.3748065297347987 -1.344225339509955
lfemur 6.420506319125968 -2.1172765270209064 -19.607020445207265
ltibia 43.28261286817846
lfoot -4.251947248749207 -3.043724834823662
ltoes -1.8739079638069664
rfemur -18.724454415001787 3.1761781321917724 26.06345327522195
rtibia 26.29024431957982
rfoot -14.69017772491123 -8.3184921181454
rtoes 2.5820952298730404
lowerback -1.0 -1.8194248039475682 0.12261366923096806
upperback -0.1256493263106373 -2.185993541791818 2.1290829448828217
thorax -4.965927421132185 -1.1589081166577921 2.9349668547816807
lowerneck -16.49970116366054 -2.7043709904288473 -2.119064026624172
upperneck 22.038199542839987 -3.2563954374810544 0.1503569353882473
head 9.721935507698296 -1.659777421393477 0.010878092511178848
lclavicle 2.7309014635016644e-16 -8.909980247082191e-16
lhumerus -25.802933078897844 -0.8064626632463066 80.07576999179327
lradius 25.84003579557233
lwrist 6.527945679349172
lhand -28.30071285801821 19.644355576244763
lfingers nan
lthumb -1.5514419518183507 49.919521773944304
rclavicle 3.964091245809912e-16 -7.865057372259034e-16
rhumerus -34.62302397626341 -26.142280261894868 -74.77214353980379
rradius 31.86429136622546
rwrist 3.2410066921599414
rhand -17.50981411802403 -1.0
rfingers nan
rthumb 8.818284791921778 -7.675645215926942
62
root 1.3379503569695381 17.919372726355867 47.44258234082295 -3.2260904146196014 -3.3096442298531636 -2.1974983191956126
lfemur 3.349376522016458 -1.486818678998434 -17.81330941578915
ltibia 48.577224119839485
lfoot -5.6959281643901996 -1.8357052993642602
ltoes -2.1851084168361425
rfemur -15.829387983224052 3.2900953256782772 27.28351586028184
rtibia 26.15150312200285
rfoot -17.098859250951755 -9.381835942434991
rtoes 2.4500950283331875
lowerback -1.0 -1.525552121024382 1.0219801571972937
upperback -0.051762119973885745 -1.6874727521364838 2.180001137107788
thorax -5.017164180185255 -0.9235565755265185 2.6311037395560906
lowerneck -16.543907309596367 -2.7335080468029602 -2.001755491019828
upperneck 21.88416824268885 -3.311239853623119 0.11718305006694207
head 9.665747206305397 -1.6845516586699978 -0.029948035624424663
lclavicle 2.769375135706877e-16 -8.892416791571567e-16
lhumerus -26.461919414388717 -0.6670645470737266 80.29690926462054
lradius 24.439511398686506
lwrist 6.92235329686574
lhand -28.286332147451002 19.71529468252606
lfingers nan
lthumb -1.5710370851787008 49.873069709971496
rclavicle 4.0023079840683545e-16 -7.855567715869171e-16
rhumerus -33.67127939880311 -26.324817438425427 -74.35568486354595
rradius 31.618976551391015
rwrist 2.633144101307783
rhand -17.534208337601196 -1.0
rfingers nan
rthumb 8.800157881101093 -7.71653466742227
63
root 1.3141863222521446 17.898228600015432 47.18142943921664 -3.4876308279257717 -3.116059434507505 -3.639581328503421
lfemur -0.4812433945335428 -0.6652520097718706 -15.28912135241858
ltibia 53.41852188801517
lfoot -6.9933645181421715 -0.7578367117007963
ltoes -2.537743943400708
rfemur -12.96332135879103 3.6715079823259487 28.815431289390503
rtibia 26.923104569495447
rfoot -19.062470399264825 -10.139680442532846
rtoes 1.8518716398352297
lowerback -1.0 -1.1510080328429382 2.3346112249566664
upperback 0.01713736093722676 -0.9514305225988283 2.2860939729488066
thorax -5.169046428277872 -0.5632055347934259 2.13298143268151
lowerneck -16.57676751743226 -2.7716712026526746 -1.830863905297846
upperneck 21.721686300079114 -3.383479809286002 0.07820205715385076
head 9.614152129300116 -1.715532960627192 -0.08586893249919132
lclavicle 2.829550412581635e-16 -8.864614764327653e-16
lhumerus -27.193038664911885 -0.24317096872358945 80.5071587829304
lradius 22.98873468227499
lwrist 7.384385597797667
lhand -28.341731476656033 19.604165427850738
lfingers nan
lthumb -1.6774280228105023 49.662420780159614
rclavicle 4.0645829183405685e-16 -7.842819474444697e-16
rhumerus -32.432026775970364 -25.95665976229097 -74.25065356132815
rradius 31.345210170856276
rwrist 1.9060413244212762
rhand -17.56011428999352 -1.0
rfingers nan
rthumb 8.739677139540808 -7.811978359258124
